# xmcd CD database file
#
# Track frame offsets:
#	150
#	17784
#	51865
#	78335
#	96122
#	114572
#	125067
#	132112
#	154192
#	182419
#	236072
#
# Disc length: 3315 seconds
#
# Revision: 0
# Processed by: cddbd v1.5.1PL0 Copyright (c) Steve Scherf et al.
# Submitted via: CDex 1.51
#
DISCID=8b0cf10b
DTITLE=Deep Sky Divers - Winter Music Collection (January 2005 Sampler CD)
DYEAR=2005
DGENRE=New Age
TTITLE0=skylander
TTITLE1=distant sound of the sea
TTITLE2=raging calm
TTITLE3=stride for stride
TTITLE4=when heaven freezes over
TTITLE5=gazing through trees
TTITLE6=and far away
TTITLE7=momentum
TTITLE8=start of a new day
TTITLE9=skylander (extended karma version)
TTITLE10=lake of menteith
EXTD=YEAR: 2005
EXTT0=
EXTT1=
EXTT2=
EXTT3=
EXTT4=
EXTT5=
EXTT6=
EXTT7=
EXTT8=
EXTT9=
EXTT10=
PLAYORDER=
